<?xml version="1.0" standalone="no"?>
<!DOCTYPE svg PUBLIC "-//W3C//DTD SVG 20010904//EN"
 "http://www.w3.org/TR/2001/REC-SVG-20010904/DTD/svg10.dtd">
<svg version="1.0" xmlns="http://www.w3.org/2000/svg"
 width="1083.000000pt" height="1081.000000pt" viewBox="0 0 1083.000000 1081.000000"
 preserveAspectRatio="xMidYMid meet">

<g transform="translate(0.000000,1081.000000) scale(0.100000,-0.100000)"
fill="#000000" stroke="none">
<path d="M0 7750 l0 -3060 215 0 215 0 0 2753 0 2752 29 60 c32 68 75 113 141
147 l45 23 2633 3 2632 2 0 190 0 190 -2955 0 -2955 0 0 -3060z"/>
<path d="M3140 9449 l0 -481 313 6 c171 3 713 9 1202 12 982 7 953 8 1179 -57
289 -83 512 -213 696 -405 175 -184 292 -400 360 -671 39 -153 45 -226 31
-354 -67 -587 -327 -973 -812 -1203 -108 -51 -312 -126 -344 -126 -29 0 -14
-22 93 -133 163 -170 452 -475 513 -540 l54 -59 78 37 c479 221 870 593 1082
1030 212 438 296 959 230 1432 -107 766 -588 1411 -1310 1758 -286 137 -496
188 -905 220 -158 12 -409 15 -1327 15 l-1133 0 0 -481z"/>
<path d="M3180 7565 l0 -456 1228 4 c1128 2 1231 4 1276 20 194 68 316 234
316 432 0 196 -123 365 -316 432 -45 16 -153 18 -1276 20 l-1228 4 0 -456z
m482 95 c26 -32 23 -75 -7 -98 l-26 -20 31 -48 c22 -35 27 -51 19 -60 -16 -19
-35 -7 -74 47 -26 36 -41 49 -60 49 -23 0 -25 -3 -25 -50 0 -47 -2 -50 -25
-50 l-25 0 0 118 c0 81 4 122 13 131 8 9 34 12 86 8 62 -3 78 -8 93 -27z m262
24 c9 -3 16 -12 16 -19 0 -18 -23 -25 -86 -25 -53 0 -54 0 -54 -30 l0 -30 60
0 c46 0 62 -4 67 -16 9 -23 -15 -34 -74 -34 -52 0 -53 0 -53 -30 0 -30 1 -30
54 -30 30 0 61 -3 70 -6 21 -8 21 -30 0 -38 -29 -11 -160 -6 -172 6 -8 8 -12
50 -12 125 0 96 2 113 18 122 19 11 141 15 166 5z m261 -19 c0 -22 0 -22 -80
-24 -54 -1 -55 -2 -55 -31 0 -29 1 -29 63 -32 54 -3 62 -5 62 -23 0 -18 -8
-20 -62 -23 -62 -3 -63 -3 -63 -32 l0 -30 63 0 c67 0 95 -14 76 -37 -8 -9 -37
-13 -90 -13 -107 0 -110 4 -108 136 2 133 4 136 113 132 73 -3 81 -5 81 -23z
m103 13 c8 -8 12 -47 12 -110 l0 -98 49 0 c58 0 81 -7 81 -25 0 -19 -24 -25
-95 -25 -90 0 -95 8 -95 131 0 121 15 160 48 127z m374 -27 c33 -37 44 -90 29
-142 -20 -66 -59 -89 -152 -89 -61 0 -69 16 -69 135 0 132 6 140 99 132 57 -4
69 -9 93 -36z m283 14 c0 -18 -8 -20 -67 -23 -68 -3 -68 -3 -68 -32 0 -29 1
-29 63 -32 54 -3 62 -5 62 -23 0 -18 -8 -20 -62 -23 -62 -3 -63 -3 -63 -32 l0
-30 63 0 c67 0 95 -14 76 -37 -8 -9 -37 -13 -90 -13 -106 0 -109 4 -109 135 0
133 3 137 114 133 73 -3 81 -5 81 -23z m103 13 c7 -7 12 -35 12 -62 l0 -50 61
61 c36 36 67 59 75 56 23 -9 16 -31 -22 -66 l-36 -33 46 -69 c40 -58 45 -70
33 -82 -20 -20 -38 -9 -72 44 -17 26 -33 51 -37 57 -13 19 -48 -25 -48 -59 0
-18 -7 -39 -16 -46 -30 -25 -44 14 -44 124 0 119 15 158 48 125z m292 -49 l0
-39 55 0 55 0 0 38 c0 41 15 63 36 55 11 -4 14 -33 14 -130 0 -123 0 -124 -22
-121 -20 3 -23 10 -26 56 l-3 52 -55 0 -54 0 0 -49 c0 -57 -19 -81 -44 -56
-13 13 -16 38 -16 120 0 82 3 107 16 120 23 23 44 2 44 -46z m382 51 c20 -6
49 -25 63 -42 24 -28 27 -39 23 -90 -5 -67 -31 -102 -87 -118 -81 -22 -151 26
-159 108 -6 67 18 116 66 136 45 18 48 18 94 6z"/>
<path d="M3520 7610 c0 -29 2 -30 44 -30 47 0 70 17 60 44 -4 12 -19 16 -55
16 -48 0 -49 -1 -49 -30z"/>
<path d="M4530 7555 l0 -85 39 0 c50 0 71 27 71 91 0 56 -21 79 -73 79 l-37 0
0 -85z"/>
<path d="M5634 7619 c-12 -14 -19 -36 -19 -64 0 -54 26 -85 70 -85 44 0 70 31
70 85 0 54 -26 85 -70 85 -20 0 -39 -8 -51 -21z"/>
<path d="M3150 5720 l0 -480 955 0 956 0 -12 22 c-7 13 -35 54 -63 93 -213
297 -480 528 -769 665 -276 132 -511 180 -874 180 l-193 0 0 -480z"/>
<path d="M7473 4399 c-50 -15 -90 -62 -103 -122 -8 -37 -10 -254 -8 -742 3
-671 4 -691 23 -725 12 -21 39 -44 65 -57 44 -23 47 -23 513 -23 453 0 469 1
508 21 66 33 88 113 49 176 -42 69 -33 68 -452 71 l-377 3 -3 647 -3 647 -23
38 c-38 60 -118 88 -189 66z"/>
<path d="M2497 4366 c-50 -19 -83 -50 -99 -95 -10 -28 -13 -193 -13 -736 l0
-700 24 -48 c56 -115 226 -116 285 -2 20 38 21 59 24 343 l4 302 97 0 c215 0
254 -34 486 -421 143 -236 162 -262 218 -291 84 -42 200 -4 227 76 14 44 2 91
-51 202 -82 171 -219 353 -324 431 l-64 48 60 16 c144 40 268 131 315 233 35
77 51 198 36 276 -33 180 -149 305 -329 357 -82 23 -837 31 -896 9z m743 -254
c50 -16 110 -69 131 -116 35 -78 17 -200 -37 -248 -64 -56 -187 -78 -440 -78
l-174 0 0 231 0 231 243 -5 c136 -2 257 -9 277 -15z"/>
<path d="M4256 4369 c-55 -13 -91 -43 -110 -89 -14 -36 -16 -118 -16 -722 0
-492 3 -692 12 -720 15 -52 66 -95 120 -103 24 -3 271 -5 550 -3 496 3 507 3
535 24 66 49 66 159 0 206 l-32 23 -427 3 -428 3 0 234 0 234 378 3 c351 3
379 4 409 22 42 26 58 59 56 114 -1 36 -8 52 -32 76 l-31 31 -390 3 -390 3 0
204 0 204 408 3 c367 3 410 5 439 21 45 24 66 69 60 124 -6 53 -36 89 -86 103
-45 12 -971 12 -1025 -1z"/>
<path d="M5862 4365 c-55 -17 -71 -31 -93 -80 -17 -37 -19 -84 -19 -724 0
-495 3 -695 12 -723 15 -52 66 -95 120 -103 24 -3 271 -5 550 -3 496 3 507 3
535 24 15 11 35 40 43 62 13 37 13 47 0 84 -8 22 -28 51 -43 62 -28 20 -40 21
-458 24 l-429 3 0 234 0 235 353 0 c193 0 370 5 391 10 22 5 53 22 70 39 26
26 30 37 29 82 -1 44 -5 56 -32 83 l-31 31 -390 3 -390 3 0 204 0 204 408 3
c390 3 408 4 442 24 43 25 60 56 60 111 0 52 -36 98 -88 113 -59 16 -986 12
-1040 -5z"/>
<path d="M4900 2282 c-71 -35 -70 -25 -69 -607 0 -376 3 -530 12 -555 14 -41
68 -80 109 -80 16 0 42 7 58 15 51 27 59 56 60 226 l1 154 100 98 c54 53 102
97 107 97 4 0 86 -122 182 -271 96 -149 185 -279 198 -290 61 -48 164 -31 195
33 17 35 17 38 0 90 -12 34 -86 149 -207 323 -104 149 -189 275 -190 282 -1 6
68 76 153 156 84 80 162 158 172 174 10 15 19 45 19 66 0 76 -90 127 -163 92
-21 -10 -140 -126 -293 -286 -141 -148 -260 -266 -265 -263 -5 3 -9 111 -9
241 0 261 -4 278 -66 308 -41 19 -61 19 -104 -3z"/>
<path d="M6160 2282 c-71 -35 -70 -25 -70 -610 0 -555 1 -563 48 -605 29 -27
92 -33 130 -13 59 31 63 51 62 312 l0 234 270 0 270 0 0 -225 c0 -238 5 -270
48 -308 50 -45 146 -27 177 33 22 42 23 1096 1 1138 -29 57 -120 75 -173 36
-45 -33 -52 -71 -52 -281 l-1 -193 -269 0 -270 0 -1 207 c0 188 -2 209 -21
239 -18 30 -62 54 -98 54 -9 0 -32 -8 -51 -18z"/>
<path d="M7781 2285 c-269 -50 -435 -259 -449 -562 -15 -347 122 -574 398
-657 83 -26 249 -31 340 -12 214 45 364 188 421 402 28 103 30 305 5 408 -51
210 -201 365 -397 410 -98 23 -233 28 -318 11z m299 -220 c111 -61 176 -182
187 -351 17 -260 -91 -437 -287 -474 -60 -11 -154 1 -205 27 -114 59 -178 168
-194 333 -20 191 39 367 145 441 72 49 109 59 209 56 78 -2 97 -7 145 -32z"/>
<path d="M2545 2274 c-49 -12 -73 -27 -91 -57 -18 -31 -19 -55 -19 -547 0
-501 1 -516 21 -550 33 -58 62 -62 354 -57 227 3 262 6 322 26 152 49 265 176
314 352 15 50 18 101 18 234 0 158 -2 176 -27 252 -59 178 -184 299 -344 334
-50 11 -513 22 -548 13z m503 -218 c63 -27 127 -104 153 -184 25 -81 31 -275
10 -362 -18 -74 -68 -167 -106 -196 -63 -47 -101 -56 -267 -62 l-158 -5 0 418
0 417 163 -4 c125 -4 172 -9 205 -22z"/>
<path d="M3805 2274 c-49 -12 -77 -29 -93 -58 -15 -28 -17 -80 -17 -553 0
-514 0 -522 21 -550 11 -15 36 -33 55 -40 48 -17 750 -17 799 0 65 22 79 113
23 157 -25 19 -39 20 -339 20 l-314 0 0 178 0 177 232 -3 c279 -4 332 1 364
33 29 29 32 83 7 114 -28 34 -81 41 -350 41 l-253 0 0 150 0 149 309 3 c284 3
311 4 329 22 27 24 37 70 23 104 -24 57 -25 57 -416 59 -198 0 -369 -1 -380
-3z"/>
</g>
</svg>
